<svg xmlns="http://www.w3.org/2000/svg" width="515.3" height="151.76" viewBox="0 0 515.3 151.76"><defs><style>.a{fill:#ee0f34;}</style></defs><title>Artboard 17</title><path class="a" d="M249.42,0l34,106.21H284L318.42,0H364.9V151.76H329.57V114.13l3.34-69.31-.63-.1-36.58,107H271.93L235.77,45.65l-.63.11,3.34,68.37v37.63H203.14V0Z"/><path class="a" d="M177,151.76H141.85V0H177Z"/><path class="a" d="M99.64,17.46Q81.61,0,54.82,0H0V73.25H35.33V27.1h17.1q14.07,0,22,9.59T82.34,62V89.53q0,15.85-7.92,25.49t-22,9.64H35.33V95H0v56.72H54.82q26.79,0,44.82-17.41t18-44.82V62.22Q117.68,34.92,99.64,17.46Z"/><polygon class="a" points="466.21 0 428.38 0 404.73 73.25 437.54 73.25 446.93 40.86 447.55 40.86 463.39 95.16 431.19 95.16 431.22 95.04 397.7 95.04 379.39 151.76 414.83 151.76 423.37 122.26 471.21 122.26 479.87 151.76 515.3 151.76 466.21 0"/></svg>